# xmcd CD database file
#
# Track frame offsets:
#	150
#	34832
#	81057
#	115967
#	150105
#	204580
#	229500
#	254830
#	292555
#
# Disc length: 4261 seconds
#
# Revision: 1
# Processed by: cddbd v1.5.2PL0 Copyright (c) Steve Scherf et al.
# Submitted via: CDex 1.70beta2
#
DISCID=6910a309
DTITLE=Yomano - The Way to Your Heart
DYEAR=1999
DGENRE=New Age
TTITLE0=You are beautiful
TTITLE1=Spring of Life
TTITLE2=Flying on a Cloud
TTITLE3=Journey to your Heart
TTITLE4=Tears of Joy
TTITLE5=See the Light
TTITLE6=The Lagoon of Love
TTITLE7=Aqua Marine
TTITLE8=Remember
EXTD=YEAR: 1999
EXTT0=
EXTT1=
EXTT2=
EXTT3=
EXTT4=
EXTT5=
EXTT6=
EXTT7=
EXTT8=
PLAYORDER=
